<?xml version="1.0" standalone="no"?>
<!DOCTYPE svg PUBLIC "-//W3C//DTD SVG 20010904//EN"
 "http://www.w3.org/TR/2001/REC-SVG-20010904/DTD/svg10.dtd">
<svg version="1.0" xmlns="http://www.w3.org/2000/svg"
 width="1000.000000pt" height="1000.000000pt" viewBox="0 0 1000.000000 1000.000000"
 preserveAspectRatio="xMidYMid meet">

<g transform="translate(0.000000,1000.000000) scale(0.100000,-0.100000)"
fill="#000000" stroke="none">
<path d="M4500 8193 c-74 -4 -205 -24 -219 -32 -17 -11 -27 -224 -14 -283 7
-28 8 -244 4 -623 -8 -632 -5 -603 -66 -694 -13 -19 -21 -39 -18 -44 3 -6 2
-7 -4 -4 -12 8 -76 -57 -66 -67 4 -4 0 -4 -8 -1 -29 11 -154 -137 -204 -240
-81 -168 -75 1 -75 -2175 0 -1911 0 -1941 20 -1997 24 -69 58 -106 131 -143
117 -60 268 -81 581 -82 214 -1 354 10 428 34 19 6 29 13 23 15 -20 7 -15 47
8 77 26 33 73 57 164 85 38 12 73 27 77 34 4 7 8 375 8 819 l0 808 -72 69 -73
69 -5 -191 -5 -192 -572 -3 -573 -2 0 995 0 995 573 -2 572 -3 3 -54 3 -54 52
7 c29 3 60 6 70 6 17 0 18 20 15 388 l-3 387 -41 85 c-46 96 -117 195 -168
233 -52 40 -125 116 -151 158 -52 82 -54 100 -56 724 -2 319 1 622 5 673 6 64
5 101 -2 115 -6 12 -13 36 -14 52 -3 29 -5 30 -73 41 -86 14 -195 21 -255 17z"/>
<path d="M5290 4189 c-103 -8 -226 -33 -245 -49 -9 -7 -10 -24 -4 -56 26 -138
123 -261 334 -425 55 -42 109 -87 120 -99 29 -32 90 -60 144 -67 59 -7 146 17
181 50 14 13 75 62 135 109 136 105 260 235 299 312 38 75 59 161 42 175 -20
16 -141 39 -271 50 -136 12 -592 12 -735 0z"/>
<path d="M0 977 c0 -24 6 -49 13 -56 10 -11 10 -14 0 -18 -10 -4 -13 -104 -13
-454 l0 -449 546 0 546 0 -6 23 c-3 12 -6 29 -6 38 0 9 -9 19 -20 22 -11 3
-20 12 -20 21 0 9 -4 16 -10 16 -5 0 -10 9 -10 20 0 11 -4 20 -10 20 -5 0 -10
9 -10 20 0 11 -5 20 -11 20 -6 0 -8 9 -4 20 3 11 2 20 -3 20 -15 0 -72 53 -72
66 0 12 -25 23 -75 33 -37 7 -45 36 -13 47 21 7 21 8 -12 16 -19 5 -47 12 -62
15 -16 3 -28 9 -28 14 0 19 -36 44 -57 41 -15 -2 -23 2 -23 11 0 8 -11 22 -25
31 -14 9 -25 23 -25 31 0 8 -7 15 -15 15 -8 0 -15 6 -15 14 0 7 -9 16 -20 19
-15 4 -20 14 -20 36 0 28 -3 31 -31 31 -23 0 -30 4 -26 15 4 8 2 17 -3 20 -23
14 -7 25 38 26 30 1 36 3 17 6 -119 14 -115 12 -115 44 0 22 -5 29 -20 29 -13
0 -20 -7 -20 -20 0 -11 -4 -20 -8 -20 -5 0 -14 -10 -20 -22 -10 -22 -11 -21
-11 10 -1 27 -5 32 -26 32 -14 0 -25 5 -25 10 0 6 -7 10 -15 10 -8 0 -15 9
-15 20 0 23 -34 61 -59 64 -9 2 -17 13 -19 25 -3 17 -9 22 -22 18 -11 -3 -26
4 -38 18 -11 13 -34 26 -51 30 -40 8 -40 25 -1 25 17 0 30 5 30 10 0 6 -18 10
-40 10 l-40 0 0 -43z m80 -26 c0 -5 -9 -7 -20 -4 -11 3 -20 7 -20 9 0 2 9 4
20 4 11 0 20 -4 20 -9z m320 -251 c0 -14 -7 -20 -21 -20 -16 0 -19 -4 -14 -20
5 -14 2 -20 -9 -20 -20 0 -21 39 -1 46 8 4 15 12 15 20 0 8 7 14 15 14 8 0 15
-9 15 -20z"/>
<path d="M312 817 c18 -19 38 -22 38 -7 0 6 -4 10 -9 10 -5 0 -18 3 -28 7 -17
6 -17 6 -1 -10z"/>
<path d="M640 544 c0 -8 5 -12 10 -9 6 3 10 10 10 16 0 5 -4 9 -10 9 -5 0 -10
-7 -10 -16z"/>
<path d="M730 450 c0 -5 9 -10 19 -10 11 0 23 5 26 10 4 6 -5 10 -19 10 -14 0
-26 -4 -26 -10z"/>
<path d="M1060 135 c0 -7 47 -55 55 -55 14 0 2 18 -25 38 -16 13 -30 20 -30
17z"/>
<path d="M1140 40 c0 -40 0 -40 38 -40 31 1 34 3 21 13 -9 7 -19 24 -23 40
-10 43 -36 35 -36 -13z"/>
</g>
</svg>
